<?xml version="1.0" encoding="UTF-8"?><svg xmlns="http://www.w3.org/2000/svg" viewBox="0 0 776 574"><defs><style>.d{font-size:27px;}.d,.e,.f{fill:#fff;font-family:Poppins-SemiBold, Poppins;}.e{font-size:16px;}.g{fill:#004aff;}.f{font-size:49px;}.h{fill:#050505;}.i{fill:red;}.j{fill:#ff0;}</style></defs><g id="a"><rect class="h" y="0" width="776" height="841"/></g><g id="b"><text class="e" transform="translate(324.24 74.84)"><tspan x="0" y="0">Cuarta selección</tspan></text><text class="d" transform="translate(377.77 104.03)"><tspan x="0" y="0">32 </tspan></text><circle class="i" cx="76" cy="153" r="10"/><circle class="i" cx="102" cy="153" r="10"/><circle class="i" cx="128" cy="153" r="10"/><circle class="i" cx="154" cy="153" r="10"/><circle class="i" cx="180" cy="153" r="10"/><circle class="i" cx="206" cy="153" r="10"/><circle class="i" cx="232" cy="153" r="10"/><circle class="i" cx="258" cy="153" r="10"/><circle class="i" cx="284" cy="153" r="10"/><circle class="i" cx="310" cy="153" r="10"/><circle class="i" cx="336" cy="153" r="10"/><circle class="i" cx="362" cy="153" r="10"/><circle class="i" cx="388" cy="153" r="10"/><circle class="i" cx="414" cy="153" r="10"/><circle class="i" cx="440" cy="153" r="10"/><circle class="g" cx="466" cy="153" r="10"/><circle class="g" cx="492" cy="153" r="10"/><circle class="g" cx="518" cy="153" r="10"/><circle class="g" cx="544" cy="153" r="10"/><circle class="g" cx="570" cy="153" r="10"/><circle class="g" cx="596" cy="153" r="10"/><circle class="g" cx="622" cy="153" r="10"/><circle class="g" cx="648" cy="153" r="10"/><circle class="g" cx="674" cy="153" r="10"/><circle class="g" cx="700" cy="153" r="10"/><circle class="g" cx="76" cy="180" r="10"/><circle class="g" cx="102" cy="180" r="10"/><circle class="g" cx="128" cy="180" r="10"/><circle class="g" cx="154" cy="180" r="10"/><circle class="g" cx="180" cy="180" r="10"/><circle class="j" cx="206" cy="180" r="10"/><circle class="j" cx="232" cy="180" r="10"/><text class="e" transform="translate(325.25 244.84)"><tspan x="0" y="0">Quinta selección</tspan></text><text class="d" transform="translate(380.45 274.03)"><tspan x="0" y="0">18</tspan></text><circle class="i" cx="167" cy="323" r="10"/><circle class="i" cx="193" cy="323" r="10"/><circle class="i" cx="219" cy="323" r="10"/><circle class="i" cx="245" cy="323" r="10"/><circle class="i" cx="271" cy="323" r="10"/><circle class="i" cx="297" cy="323" r="10"/><circle class="i" cx="323" cy="323" r="10"/><circle class="i" cx="349" cy="323" r="10"/><circle class="g" cx="375" cy="323" r="10"/><circle class="g" cx="401" cy="323" r="10"/><circle class="g" cx="427" cy="323" r="10"/><circle class="g" cx="453" cy="323" r="10"/><circle class="g" cx="479" cy="323" r="10"/><circle class="g" cx="505" cy="323" r="10"/><circle class="g" cx="531" cy="323" r="10"/><circle class="g" cx="557" cy="323" r="10"/><circle class="j" cx="583" cy="323" r="10"/><circle class="j" cx="609" cy="323" r="10"/><text class="e" transform="translate(326.16 395.84)"><tspan x="0" y="0">Última selección</tspan></text><text class="f" transform="translate(381.05 441.31)"><tspan x="0" y="0">7</tspan></text><circle class="i" cx="313" cy="484" r="10"/><circle class="i" cx="339" cy="484" r="10"/><circle class="i" cx="365" cy="484" r="10"/><circle class="g" cx="391" cy="484" r="10"/><circle class="g" cx="417" cy="484" r="10"/><circle class="g" cx="443" cy="484" r="10"/><circle class="j" cx="469" cy="484" r="10"/></g><g id="c"/></svg>