<?xml version="1.0" encoding="UTF-8"?><svg xmlns="http://www.w3.org/2000/svg" viewBox="0 0 776 352"><defs><style>.d{font-size:27px;}.d,.e{fill:#fff;font-family:Poppins-SemiBold, Poppins;}.e{font-size:16px;}.f{fill:#004aff;}.g{fill:#050505;}.h{fill:red;}.i{fill:#ff0;}</style></defs><g id="a"><rect class="g" width="776" height="803"/></g><g id="b"><text class="e" transform="translate(316.41 74.84)"><tspan x="0" y="0">Segunda selección</tspan></text><text class="d" transform="translate(376.06 104.03)"><tspan x="0" y="0">110 </tspan></text><circle class="h" cx="76" cy="153" r="10"/><circle class="h" cx="102" cy="153" r="10"/><circle class="h" cx="128" cy="153" r="10"/><circle class="h" cx="154" cy="153" r="10"/><circle class="h" cx="180" cy="153" r="10"/><circle class="h" cx="206" cy="153" r="10"/><circle class="h" cx="232" cy="153" r="10"/><circle class="h" cx="258" cy="153" r="10"/><circle class="h" cx="284" cy="153" r="10"/><circle class="h" cx="310" cy="153" r="10"/><circle class="h" cx="336" cy="153" r="10"/><circle class="h" cx="362" cy="153" r="10"/><circle class="h" cx="388" cy="153" r="10"/><circle class="h" cx="414" cy="153" r="10"/><circle class="h" cx="440" cy="153" r="10"/><circle class="h" cx="466" cy="153" r="10"/><circle class="h" cx="492" cy="153" r="10"/><circle class="h" cx="518" cy="153" r="10"/><circle class="h" cx="544" cy="153" r="10"/><circle class="h" cx="570" cy="153" r="10"/><circle class="h" cx="596" cy="153" r="10"/><circle class="h" cx="622" cy="153" r="10"/><circle class="h" cx="648" cy="153" r="10"/><circle class="h" cx="674" cy="153" r="10"/><circle class="h" cx="700" cy="153" r="10"/><circle class="h" cx="76" cy="180" r="10"/><circle class="h" cx="102" cy="180" r="10"/><circle class="h" cx="128" cy="180" r="10"/><circle class="h" cx="154" cy="180" r="10"/><circle class="h" cx="180" cy="180" r="10"/><circle class="h" cx="206" cy="180" r="10"/><circle class="h" cx="232" cy="180" r="10"/><circle class="h" cx="258" cy="180" r="10"/><circle class="h" cx="284" cy="180" r="10"/><circle class="h" cx="310" cy="180" r="10"/><circle class="h" cx="336" cy="180" r="10"/><circle class="h" cx="362" cy="180" r="10"/><circle class="h" cx="388" cy="180" r="10"/><circle class="h" cx="414" cy="180" r="10"/><circle class="h" cx="440" cy="180" r="10"/><circle class="h" cx="466" cy="180" r="10"/><circle class="h" cx="492" cy="180" r="10"/><circle class="h" cx="518" cy="180" r="10"/><circle class="h" cx="544" cy="180" r="10"/><circle class="h" cx="570" cy="180" r="10"/><circle class="h" cx="596" cy="180" r="10"/><circle class="h" cx="622" cy="180" r="10"/><circle class="h" cx="648" cy="180" r="10"/><circle class="h" cx="674" cy="180" r="10"/><circle class="h" cx="700" cy="180" r="10"/><circle class="h" cx="76" cy="207" r="10"/><circle class="h" cx="102" cy="207" r="10"/><circle class="h" cx="128" cy="207" r="10"/><circle class="h" cx="154" cy="207" r="10"/><circle class="h" cx="180" cy="207" r="10"/><circle class="h" cx="206" cy="207" r="10"/><circle class="h" cx="232" cy="207" r="10"/><circle class="h" cx="258" cy="207" r="10"/><circle class="f" cx="284" cy="207" r="10"/><circle class="f" cx="310" cy="207" r="10"/><circle class="f" cx="336" cy="207" r="10"/><circle class="f" cx="362" cy="207" r="10"/><circle class="f" cx="388" cy="207" r="10"/><circle class="f" cx="414" cy="207" r="10"/><circle class="f" cx="440" cy="207" r="10"/><circle class="f" cx="466" cy="207" r="10"/><circle class="f" cx="492" cy="207" r="10"/><circle class="f" cx="518" cy="207" r="10"/><circle class="f" cx="544" cy="207" r="10"/><circle class="f" cx="570" cy="207" r="10"/><circle class="f" cx="596" cy="207" r="10"/><circle class="f" cx="622" cy="207" r="10"/><circle class="f" cx="648" cy="207" r="10"/><circle class="f" cx="674" cy="207" r="10"/><circle class="f" cx="700" cy="207" r="10"/><circle class="f" cx="76" cy="234" r="10"/><circle class="f" cx="102" cy="234" r="10"/><circle class="f" cx="128" cy="234" r="10"/><circle class="f" cx="154" cy="234" r="10"/><circle class="f" cx="180" cy="234" r="10"/><circle class="f" cx="206" cy="234" r="10"/><circle class="f" cx="232" cy="234" r="10"/><circle class="f" cx="258" cy="234" r="10"/><circle class="f" cx="284" cy="234" r="10"/><circle class="f" cx="310" cy="234" r="10"/><circle class="f" cx="336" cy="234" r="10"/><circle class="f" cx="362" cy="234" r="10"/><circle class="f" cx="388" cy="234" r="10"/><circle class="f" cx="414" cy="234" r="10"/><circle class="f" cx="440" cy="234" r="10"/><circle class="f" cx="466" cy="234" r="10"/><circle class="f" cx="492" cy="234" r="10"/><circle class="f" cx="518" cy="234" r="10"/><circle class="f" cx="544" cy="234" r="10"/><circle class="f" cx="570" cy="234" r="10"/><circle class="f" cx="596" cy="234" r="10"/><circle class="f" cx="622" cy="234" r="10"/><circle class="f" cx="648" cy="234" r="10"/><circle class="f" cx="674" cy="234" r="10"/><circle class="f" cx="700" cy="234" r="10"/><circle class="f" cx="76" cy="261" r="10"/><circle class="f" cx="102" cy="261" r="10"/><circle class="f" cx="128" cy="261" r="10"/><circle class="f" cx="154" cy="261" r="10"/><circle class="f" cx="180" cy="261" r="10"/><circle class="i" cx="206" cy="261" r="10"/><circle class="i" cx="232" cy="261" r="10"/><circle class="i" cx="258" cy="261" r="10"/><circle class="i" cx="284" cy="261" r="10"/><circle class="i" cx="310" cy="261" r="10"/></g><g id="c"/></svg>