<?xml version="1.0" encoding="UTF-8"?><svg xmlns="http://www.w3.org/2000/svg" viewBox="0 0 776 888"><defs><style>.d{fill:#009245;}.e{font-size:27px;}.e,.f{font-family:Poppins-SemiBold, Poppins;}.e,.f,.g{fill:#fff;}.f{font-size:16px;}.h{fill:#004aff;}.i{fill:#050505;}.g{font-family:Poppins-Regular, Poppins;font-size:11px;}.j{fill:red;}.k{fill:#ff0;}</style></defs><g id="a"><rect class="i" width="776" height="888"/></g><g id="b"><text class="f" transform="translate(322 160.84)"><tspan x="0" y="0">Primera selección</tspan></text><text class="e" transform="translate(367.82 189.03)"><tspan x="0" y="0">508</tspan></text><text class="g" transform="translate(434.33 110.29)"><tspan x="0" y="0">Armada</tspan></text><circle class="h" cx="417.44" cy="107.08" r="9.56"/><text class="g" transform="translate(202.33 111.29)"><tspan x="0" y="0">Fuerza aérea</tspan></text><circle class="j" cx="185.44" cy="108.08" r="9.56"/><text class="g" transform="translate(564.33 110.29)"><tspan x="0" y="0">Ejército</tspan></text><circle class="d" cx="547.44" cy="107.08" r="9.56"/><text class="g" transform="translate(332.33 111.29)"><tspan x="0" y="0">Marines</tspan></text><circle class="k" cx="315.44" cy="108.08" r="9.56"/><circle class="j" cx="76" cy="238" r="10"/><circle class="j" cx="102" cy="238" r="10"/><circle class="j" cx="128" cy="238" r="10"/><circle class="j" cx="154" cy="238" r="10"/><circle class="j" cx="180" cy="238" r="10"/><circle class="j" cx="206" cy="238" r="10"/><circle class="j" cx="232" cy="238" r="10"/><circle class="j" cx="258" cy="238" r="10"/><circle class="j" cx="284" cy="238" r="10"/><circle class="j" cx="310" cy="238" r="10"/><circle class="j" cx="336" cy="238" r="10"/><circle class="j" cx="362" cy="238" r="10"/><circle class="j" cx="388" cy="238" r="10"/><circle class="j" cx="414" cy="238" r="10"/><circle class="j" cx="440" cy="238" r="10"/><circle class="j" cx="466" cy="238" r="10"/><circle class="j" cx="492" cy="238" r="10"/><circle class="j" cx="518" cy="238" r="10"/><circle class="j" cx="544" cy="238" r="10"/><circle class="j" cx="570" cy="238" r="10"/><circle class="j" cx="596" cy="238" r="10"/><circle class="j" cx="622" cy="238" r="10"/><circle class="j" cx="648" cy="238" r="10"/><circle class="j" cx="674" cy="238" r="10"/><circle class="j" cx="700" cy="238" r="10"/><circle class="j" cx="76" cy="265" r="10"/><circle class="j" cx="102" cy="265" r="10"/><circle class="j" cx="128" cy="265" r="10"/><circle class="j" cx="154" cy="265" r="10"/><circle class="j" cx="180" cy="265" r="10"/><circle class="j" cx="206" cy="265" r="10"/><circle class="j" cx="232" cy="265" r="10"/><circle class="j" cx="258" cy="265" r="10"/><circle class="j" cx="284" cy="265" r="10"/><circle class="j" cx="310" cy="265" r="10"/><circle class="j" cx="336" cy="265" r="10"/><circle class="j" cx="362" cy="265" r="10"/><circle class="j" cx="388" cy="265" r="10"/><circle class="j" cx="414" cy="265" r="10"/><circle class="j" cx="440" cy="265" r="10"/><circle class="j" cx="466" cy="265" r="10"/><circle class="j" cx="492" cy="265" r="10"/><circle class="j" cx="518" cy="265" r="10"/><circle class="j" cx="544" cy="265" r="10"/><circle class="j" cx="570" cy="265" r="10"/><circle class="j" cx="596" cy="265" r="10"/><circle class="j" cx="622" cy="265" r="10"/><circle class="j" cx="648" cy="265" r="10"/><circle class="j" cx="674" cy="265" r="10"/><circle class="j" cx="700" cy="265" r="10"/><circle class="j" cx="76" cy="292" r="10"/><circle class="j" cx="102" cy="292" r="10"/><circle class="j" cx="128" cy="292" r="10"/><circle class="j" cx="154" cy="292" r="10"/><circle class="j" cx="180" cy="292" r="10"/><circle class="j" cx="206" cy="292" r="10"/><circle class="j" cx="232" cy="292" r="10"/><circle class="j" cx="258" cy="292" r="10"/><circle class="j" cx="284" cy="292" r="10"/><circle class="j" cx="310" cy="292" r="10"/><circle class="j" cx="336" cy="292" r="10"/><circle class="j" cx="362" cy="292" r="10"/><circle class="j" cx="388" cy="292" r="10"/><circle class="j" cx="414" cy="292" r="10"/><circle class="j" cx="440" cy="292" r="10"/><circle class="j" cx="466" cy="292" r="10"/><circle class="j" cx="492" cy="292" r="10"/><circle class="j" cx="518" cy="292" r="10"/><circle class="j" cx="544" cy="292" r="10"/><circle class="j" cx="570" cy="292" r="10"/><circle class="j" cx="596" cy="292" r="10"/><circle class="j" cx="622" cy="292" r="10"/><circle class="j" cx="648" cy="292" r="10"/><circle class="j" cx="674" cy="292" r="10"/><circle class="j" cx="700" cy="292" r="10"/><circle class="j" cx="76" cy="319" r="10"/><circle class="j" cx="102" cy="319" r="10"/><circle class="j" cx="128" cy="319" r="10"/><circle class="j" cx="154" cy="319" r="10"/><circle class="j" cx="180" cy="319" r="10"/><circle class="j" cx="206" cy="319" r="10"/><circle class="j" cx="232" cy="319" r="10"/><circle class="j" cx="258" cy="319" r="10"/><circle class="j" cx="284" cy="319" r="10"/><circle class="j" cx="310" cy="319" r="10"/><circle class="j" cx="336" cy="319" r="10"/><circle class="j" cx="362" cy="319" r="10"/><circle class="j" cx="388" cy="319" r="10"/><circle class="j" cx="414" cy="319" r="10"/><circle class="j" cx="440" cy="319" r="10"/><circle class="j" cx="466" cy="319" r="10"/><circle class="j" cx="492" cy="319" r="10"/><circle class="j" cx="518" cy="319" r="10"/><circle class="j" cx="544" cy="319" r="10"/><circle class="j" cx="570" cy="319" r="10"/><circle class="j" cx="596" cy="319" r="10"/><circle class="j" cx="622" cy="319" r="10"/><circle class="j" cx="648" cy="319" r="10"/><circle class="j" cx="674" cy="319" r="10"/><circle class="j" cx="700" cy="319" r="10"/><circle class="j" cx="76" cy="346" r="10"/><circle class="j" cx="102" cy="346" r="10"/><circle class="j" cx="128" cy="346" r="10"/><circle class="j" cx="154" cy="346" r="10"/><circle class="j" cx="180" cy="346" r="10"/><circle class="j" cx="206" cy="346" r="10"/><circle class="j" cx="232" cy="346" r="10"/><circle class="j" cx="258" cy="346" r="10"/><circle class="j" cx="284" cy="346" r="10"/><circle class="j" cx="310" cy="346" r="10"/><circle class="j" cx="336" cy="346" r="10"/><circle class="j" cx="362" cy="346" r="10"/><circle class="j" cx="388" cy="346" r="10"/><circle class="j" cx="414" cy="346" r="10"/><circle class="j" cx="440" cy="346" r="10"/><circle class="j" cx="466" cy="346" r="10"/><circle class="j" cx="492" cy="346" r="10"/><circle class="j" cx="518" cy="346" r="10"/><circle class="j" cx="544" cy="346" r="10"/><circle class="j" cx="570" cy="346" r="10"/><circle class="j" cx="596" cy="346" r="10"/><circle class="j" cx="622" cy="346" r="10"/><circle class="j" cx="648" cy="346" r="10"/><circle class="j" cx="674" cy="346" r="10"/><circle class="j" cx="700" cy="346" r="10"/><circle class="j" cx="76" cy="373" r="10"/><circle class="j" cx="102" cy="373" r="10"/><circle class="j" cx="128" cy="373" r="10"/><circle class="j" cx="154" cy="373" r="10"/><circle class="j" cx="180" cy="373" r="10"/><circle class="j" cx="206" cy="373" r="10"/><circle class="j" cx="232" cy="373" r="10"/><circle class="j" cx="258" cy="373" r="10"/><circle class="j" cx="284" cy="373" r="10"/><circle class="j" cx="310" cy="373" r="10"/><circle class="j" cx="336" cy="373" r="10"/><circle class="j" cx="362" cy="373" r="10"/><circle class="j" cx="388" cy="373" r="10"/><circle class="j" cx="414" cy="373" r="10"/><circle class="j" cx="440" cy="373" r="10"/><circle class="j" cx="466" cy="373" r="10"/><circle class="j" cx="492" cy="373" r="10"/><circle class="j" cx="518" cy="373" r="10"/><circle class="j" cx="544" cy="373" r="10"/><circle class="j" cx="570" cy="373" r="10"/><circle class="j" cx="596" cy="373" r="10"/><circle class="j" cx="622" cy="373" r="10"/><circle class="j" cx="648" cy="373" r="10"/><circle class="j" cx="674" cy="373" r="10"/><circle class="j" cx="700" cy="373" r="10"/><circle class="j" cx="76" cy="400" r="10"/><circle class="j" cx="102" cy="400" r="10"/><circle class="j" cx="128" cy="400" r="10"/><circle class="j" cx="154" cy="400" r="10"/><circle class="j" cx="180" cy="400" r="10"/><circle class="j" cx="206" cy="400" r="10"/><circle class="j" cx="232" cy="400" r="10"/><circle class="j" cx="258" cy="400" r="10"/><circle class="j" cx="284" cy="400" r="10"/><circle class="j" cx="310" cy="400" r="10"/><circle class="j" cx="336" cy="400" r="10"/><circle class="j" cx="362" cy="400" r="10"/><circle class="j" cx="388" cy="400" r="10"/><circle class="j" cx="414" cy="400" r="10"/><circle class="j" cx="440" cy="400" r="10"/><circle class="j" cx="466" cy="400" r="10"/><circle class="j" cx="492" cy="400" r="10"/><circle class="j" cx="518" cy="400" r="10"/><circle class="j" cx="544" cy="400" r="10"/><circle class="j" cx="570" cy="400" r="10"/><circle class="j" cx="596" cy="400" r="10"/><circle class="j" cx="622" cy="400" r="10"/><circle class="j" cx="648" cy="400" r="10"/><circle class="j" cx="674" cy="400" r="10"/><circle class="j" cx="700" cy="400" r="10"/><circle class="j" cx="76" cy="427" r="10"/><circle class="j" cx="102" cy="427" r="10"/><circle class="j" cx="128" cy="427" r="10"/><circle class="j" cx="154" cy="427" r="10"/><circle class="j" cx="180" cy="427" r="10"/><circle class="j" cx="206" cy="427" r="10"/><circle class="j" cx="232" cy="427" r="10"/><circle class="j" cx="258" cy="427" r="10"/><circle class="j" cx="284" cy="427" r="10"/><circle class="j" cx="310" cy="427" r="10"/><circle class="j" cx="336" cy="427" r="10"/><circle class="j" cx="362" cy="427" r="10"/><circle class="j" cx="388" cy="427" r="10"/><circle class="j" cx="414" cy="427" r="10"/><circle class="j" cx="440" cy="427" r="10"/><circle class="j" cx="466" cy="427" r="10"/><circle class="j" cx="492" cy="427" r="10"/><circle class="j" cx="518" cy="427" r="10"/><circle class="j" cx="544" cy="427" r="10"/><circle class="j" cx="570" cy="427" r="10"/><circle class="j" cx="596" cy="427" r="10"/><circle class="j" cx="622" cy="427" r="10"/><circle class="j" cx="648" cy="427" r="10"/><circle class="j" cx="674" cy="427" r="10"/><circle class="j" cx="700" cy="427" r="10"/><circle class="j" cx="76" cy="454" r="10"/><circle class="j" cx="102" cy="454" r="10"/><circle class="j" cx="128" cy="454" r="10"/><circle class="j" cx="154" cy="454" r="10"/><circle class="j" cx="180" cy="454" r="10"/><circle class="j" cx="206" cy="454" r="10"/><circle class="j" cx="232" cy="454" r="10"/><circle class="j" cx="258" cy="454" r="10"/><circle class="j" cx="284" cy="454" r="10"/><circle class="j" cx="310" cy="454" r="10"/><circle class="j" cx="336" cy="454" r="10"/><circle class="j" cx="362" cy="454" r="10"/><circle class="j" cx="388" cy="454" r="10"/><circle class="j" cx="414" cy="454" r="10"/><circle class="j" cx="440" cy="454" r="10"/><circle class="j" cx="466" cy="454" r="10"/><circle class="j" cx="492" cy="454" r="10"/><circle class="j" cx="518" cy="454" r="10"/><circle class="j" cx="544" cy="454" r="10"/><circle class="j" cx="570" cy="454" r="10"/><circle class="j" cx="596" cy="454" r="10"/><circle class="j" cx="622" cy="454" r="10"/><circle class="j" cx="648" cy="454" r="10"/><circle class="j" cx="674" cy="454" r="10"/><circle class="j" cx="700" cy="454" r="10"/><circle class="h" cx="76" cy="481" r="10"/><circle class="h" cx="102" cy="481" r="10"/><circle class="h" cx="128" cy="481" r="10"/><circle class="h" cx="154" cy="481" r="10"/><circle class="h" cx="180" cy="481" r="10"/><circle class="h" cx="206" cy="481" r="10"/><circle class="h" cx="232" cy="481" r="10"/><circle class="h" cx="258" cy="481" r="10"/><circle class="h" cx="284" cy="481" r="10"/><circle class="h" cx="310" cy="481" r="10"/><circle class="h" cx="336" cy="481" r="10"/><circle class="h" cx="362" cy="481" r="10"/><circle class="h" cx="388" cy="481" r="10"/><circle class="h" cx="414" cy="481" r="10"/><circle class="h" cx="440" cy="481" r="10"/><circle class="h" cx="466" cy="481" r="10"/><circle class="h" cx="492" cy="481" r="10"/><circle class="h" cx="518" cy="481" r="10"/><circle class="h" cx="544" cy="481" r="10"/><circle class="h" cx="570" cy="481" r="10"/><circle class="h" cx="596" cy="481" r="10"/><circle class="h" cx="622" cy="481" r="10"/><circle class="h" cx="648" cy="481" r="10"/><circle class="h" cx="674" cy="481" r="10"/><circle class="h" cx="700" cy="481" r="10"/><circle class="h" cx="76" cy="508" r="10"/><circle class="h" cx="102" cy="508" r="10"/><circle class="h" cx="128" cy="508" r="10"/><circle class="h" cx="154" cy="508" r="10"/><circle class="h" cx="180" cy="508" r="10"/><circle class="h" cx="206" cy="508" r="10"/><circle class="h" cx="232" cy="508" r="10"/><circle class="h" cx="258" cy="508" r="10"/><circle class="h" cx="284" cy="508" r="10"/><circle class="h" cx="310" cy="508" r="10"/><circle class="h" cx="336" cy="508" r="10"/><circle class="h" cx="362" cy="508" r="10"/><circle class="h" cx="388" cy="508" r="10"/><circle class="h" cx="414" cy="508" r="10"/><circle class="h" cx="440" cy="508" r="10"/><circle class="h" cx="466" cy="508" r="10"/><circle class="h" cx="492" cy="508" r="10"/><circle class="h" cx="518" cy="508" r="10"/><circle class="h" cx="544" cy="508" r="10"/><circle class="h" cx="570" cy="508" r="10"/><circle class="h" cx="596" cy="508" r="10"/><circle class="h" cx="622" cy="508" r="10"/><circle class="h" cx="648" cy="508" r="10"/><circle class="h" cx="674" cy="508" r="10"/><circle class="h" cx="700" cy="508" r="10"/><circle class="h" cx="76" cy="535" r="10"/><circle class="h" cx="102" cy="535" r="10"/><circle class="h" cx="128" cy="535" r="10"/><circle class="h" cx="154" cy="535" r="10"/><circle class="h" cx="180" cy="535" r="10"/><circle class="h" cx="206" cy="535" r="10"/><circle class="h" cx="232" cy="535" r="10"/><circle class="h" cx="258" cy="535" r="10"/><circle class="h" cx="284" cy="535" r="10"/><circle class="h" cx="310" cy="535" r="10"/><circle class="h" cx="336" cy="535" r="10"/><circle class="h" cx="362" cy="535" r="10"/><circle class="h" cx="388" cy="535" r="10"/><circle class="h" cx="414" cy="535" r="10"/><circle class="h" cx="440" cy="535" r="10"/><circle class="h" cx="466" cy="535" r="10"/><circle class="h" cx="492" cy="535" r="10"/><circle class="h" cx="518" cy="535" r="10"/><circle class="h" cx="544" cy="535" r="10"/><circle class="h" cx="570" cy="535" r="10"/><circle class="h" cx="596" cy="535" r="10"/><circle class="h" cx="622" cy="535" r="10"/><circle class="h" cx="648" cy="535" r="10"/><circle class="h" cx="674" cy="535" r="10"/><circle class="h" cx="700" cy="535" r="10"/><circle class="h" cx="76" cy="562" r="10"/><circle class="h" cx="102" cy="562" r="10"/><circle class="h" cx="128" cy="562" r="10"/><circle class="h" cx="154" cy="562" r="10"/><circle class="h" cx="180" cy="562" r="10"/><circle class="h" cx="206" cy="562" r="10"/><circle class="h" cx="232" cy="562" r="10"/><circle class="h" cx="258" cy="562" r="10"/><circle class="h" cx="284" cy="562" r="10"/><circle class="h" cx="310" cy="562" r="10"/><circle class="h" cx="336" cy="562" r="10"/><circle class="h" cx="362" cy="562" r="10"/><circle class="h" cx="388" cy="562" r="10"/><circle class="h" cx="414" cy="562" r="10"/><circle class="h" cx="440" cy="562" r="10"/><circle class="h" cx="466" cy="562" r="10"/><circle class="h" cx="492" cy="562" r="10"/><circle class="h" cx="518" cy="562" r="10"/><circle class="h" cx="544" cy="562" r="10"/><circle class="h" cx="570" cy="562" r="10"/><circle class="h" cx="596" cy="562" r="10"/><circle class="h" cx="622" cy="562" r="10"/><circle class="h" cx="648" cy="562" r="10"/><circle class="h" cx="674" cy="562" r="10"/><circle class="h" cx="700" cy="562" r="10"/><circle class="h" cx="76" cy="589" r="10"/><circle class="h" cx="102" cy="589" r="10"/><circle class="h" cx="128" cy="589" r="10"/><circle class="h" cx="154" cy="589" r="10"/><circle class="h" cx="180" cy="589" r="10"/><circle class="h" cx="206" cy="589" r="10"/><circle class="h" cx="232" cy="589" r="10"/><circle class="h" cx="258" cy="589" r="10"/><circle class="h" cx="284" cy="589" r="10"/><circle class="h" cx="310" cy="589" r="10"/><circle class="h" cx="336" cy="589" r="10"/><circle class="h" cx="362" cy="589" r="10"/><circle class="h" cx="388" cy="589" r="10"/><circle class="h" cx="414" cy="589" r="10"/><circle class="h" cx="440" cy="589" r="10"/><circle class="h" cx="466" cy="589" r="10"/><circle class="h" cx="492" cy="589" r="10"/><circle class="h" cx="518" cy="589" r="10"/><circle class="h" cx="544" cy="589" r="10"/><circle class="h" cx="570" cy="589" r="10"/><circle class="h" cx="596" cy="589" r="10"/><circle class="h" cx="622" cy="589" r="10"/><circle class="h" cx="648" cy="589" r="10"/><circle class="h" cx="674" cy="589" r="10"/><circle class="h" cx="700" cy="589" r="10"/><circle class="h" cx="76" cy="616" r="10"/><circle class="h" cx="102" cy="616" r="10"/><circle class="h" cx="128" cy="616" r="10"/><circle class="h" cx="154" cy="616" r="10"/><circle class="h" cx="180" cy="616" r="10"/><circle class="h" cx="206" cy="616" r="10"/><circle class="h" cx="232" cy="616" r="10"/><circle class="h" cx="258" cy="616" r="10"/><circle class="h" cx="284" cy="616" r="10"/><circle class="h" cx="310" cy="616" r="10"/><circle class="h" cx="336" cy="616" r="10"/><circle class="h" cx="362" cy="616" r="10"/><circle class="h" cx="388" cy="616" r="10"/><circle class="h" cx="414" cy="616" r="10"/><circle class="h" cx="440" cy="616" r="10"/><circle class="h" cx="466" cy="616" r="10"/><circle class="h" cx="492" cy="616" r="10"/><circle class="h" cx="518" cy="616" r="10"/><circle class="h" cx="544" cy="616" r="10"/><circle class="h" cx="570" cy="616" r="10"/><circle class="h" cx="596" cy="616" r="10"/><circle class="h" cx="622" cy="616" r="10"/><circle class="h" cx="648" cy="616" r="10"/><circle class="h" cx="674" cy="616" r="10"/><circle class="h" cx="700" cy="616" r="10"/><circle class="h" cx="76" cy="643" r="10"/><circle class="h" cx="102" cy="643" r="10"/><circle class="h" cx="128" cy="643" r="10"/><circle class="h" cx="154" cy="643" r="10"/><circle class="h" cx="180" cy="643" r="10"/><circle class="h" cx="206" cy="643" r="10"/><circle class="h" cx="232" cy="643" r="10"/><circle class="h" cx="258" cy="643" r="10"/><circle class="h" cx="284" cy="643" r="10"/><circle class="h" cx="310" cy="643" r="10"/><circle class="h" cx="336" cy="643" r="10"/><circle class="h" cx="362" cy="643" r="10"/><circle class="h" cx="388" cy="643" r="10"/><circle class="h" cx="414" cy="643" r="10"/><circle class="h" cx="440" cy="643" r="10"/><circle class="h" cx="466" cy="643" r="10"/><circle class="h" cx="492" cy="643" r="10"/><circle class="h" cx="518" cy="643" r="10"/><circle class="h" cx="544" cy="643" r="10"/><circle class="h" cx="570" cy="643" r="10"/><circle class="h" cx="596" cy="643" r="10"/><circle class="h" cx="622" cy="643" r="10"/><circle class="h" cx="648" cy="643" r="10"/><circle class="h" cx="674" cy="643" r="10"/><circle class="h" cx="700" cy="643" r="10"/><circle class="h" cx="76" cy="670" r="10"/><circle class="h" cx="102" cy="670" r="10"/><circle class="h" cx="128" cy="670" r="10"/><circle class="h" cx="154" cy="670" r="10"/><circle class="h" cx="180" cy="670" r="10"/><circle class="h" cx="206" cy="670" r="10"/><circle class="h" cx="232" cy="670" r="10"/><circle class="h" cx="258" cy="670" r="10"/><circle class="h" cx="284" cy="670" r="10"/><circle class="h" cx="310" cy="670" r="10"/><circle class="h" cx="336" cy="670" r="10"/><circle class="h" cx="362" cy="670" r="10"/><circle class="h" cx="388" cy="670" r="10"/><circle class="h" cx="414" cy="670" r="10"/><circle class="h" cx="440" cy="670" r="10"/><circle class="h" cx="466" cy="670" r="10"/><circle class="h" cx="492" cy="670" r="10"/><circle class="h" cx="518" cy="670" r="10"/><circle class="h" cx="544" cy="670" r="10"/><circle class="h" cx="570" cy="670" r="10"/><circle class="h" cx="596" cy="670" r="10"/><circle class="h" cx="622" cy="670" r="10"/><circle class="h" cx="648" cy="670" r="10"/><circle class="h" cx="674" cy="670" r="10"/><circle class="h" cx="700" cy="670" r="10"/><circle class="h" cx="76" cy="697" r="10"/><circle class="h" cx="102" cy="697" r="10"/><circle class="h" cx="128" cy="697" r="10"/><circle class="h" cx="154" cy="697" r="10"/><circle class="h" cx="180" cy="697" r="10"/><circle class="h" cx="206" cy="697" r="10"/><circle class="h" cx="232" cy="697" r="10"/><circle class="h" cx="258" cy="697" r="10"/><circle class="h" cx="284" cy="697" r="10"/><circle class="h" cx="310" cy="697" r="10"/><circle class="h" cx="336" cy="697" r="10"/><circle class="h" cx="362" cy="697" r="10"/><circle class="h" cx="388" cy="697" r="10"/><circle class="h" cx="414" cy="697" r="10"/><circle class="h" cx="440" cy="697" r="10"/><circle class="h" cx="466" cy="697" r="10"/><circle class="h" cx="492" cy="697" r="10"/><circle class="h" cx="518" cy="697" r="10"/><circle class="h" cx="544" cy="697" r="10"/><circle class="h" cx="570" cy="697" r="10"/><circle class="h" cx="596" cy="697" r="10"/><circle class="h" cx="622" cy="697" r="10"/><circle class="h" cx="648" cy="697" r="10"/><circle class="h" cx="674" cy="697" r="10"/><circle class="h" cx="700" cy="697" r="10"/><circle class="d" cx="76" cy="724" r="10"/><circle class="d" cx="102" cy="724" r="10"/><circle class="d" cx="128" cy="724" r="10"/><circle class="d" cx="154" cy="724" r="10"/><circle class="d" cx="180" cy="724" r="10"/><circle class="d" cx="206" cy="724" r="10"/><circle class="d" cx="232" cy="724" r="10"/><circle class="d" cx="258" cy="724" r="10"/><circle class="d" cx="284" cy="724" r="10"/><circle class="d" cx="310" cy="724" r="10"/><circle class="d" cx="336" cy="724" r="10"/><circle class="d" cx="362" cy="724" r="10"/><circle class="d" cx="388" cy="724" r="10"/><circle class="d" cx="414" cy="724" r="10"/><circle class="d" cx="440" cy="724" r="10"/><circle class="d" cx="466" cy="724" r="10"/><circle class="d" cx="492" cy="724" r="10"/><circle class="d" cx="518" cy="724" r="10"/><circle class="d" cx="544" cy="724" r="10"/><circle class="d" cx="570" cy="724" r="10"/><circle class="d" cx="596" cy="724" r="10"/><circle class="d" cx="622" cy="724" r="10"/><circle class="d" cx="648" cy="724" r="10"/><circle class="d" cx="674" cy="724" r="10"/><circle class="d" cx="700" cy="724" r="10"/><circle class="d" cx="76" cy="751" r="10"/><circle class="d" cx="102" cy="751" r="10"/><circle class="d" cx="128" cy="751" r="10"/><circle class="d" cx="154" cy="751" r="10"/><circle class="d" cx="180" cy="751" r="10"/><circle class="d" cx="206" cy="751" r="10"/><circle class="d" cx="232" cy="751" r="10"/><circle class="d" cx="258" cy="751" r="10"/><circle class="d" cx="284" cy="751" r="10"/><circle class="d" cx="310" cy="751" r="10"/><circle class="k" cx="336" cy="751" r="10"/><circle class="k" cx="362" cy="751" r="10"/><circle class="k" cx="388" cy="751" r="10"/><circle class="k" cx="414" cy="751" r="10"/><circle class="k" cx="440" cy="751" r="10"/><circle class="k" cx="466" cy="751" r="10"/><circle class="k" cx="492" cy="751" r="10"/><circle class="k" cx="518" cy="751" r="10"/><circle class="k" cx="544" cy="751" r="10"/><circle class="k" cx="570" cy="751" r="10"/><circle class="k" cx="596" cy="751" r="10"/><circle class="k" cx="622" cy="751" r="10"/><circle class="k" cx="648" cy="751" r="10"/><circle class="k" cx="674" cy="751" r="10"/><circle class="k" cx="700" cy="751" r="10"/><circle class="k" cx="76" cy="778" r="10"/><circle class="k" cx="102" cy="778" r="10"/><circle class="k" cx="128" cy="778" r="10"/><circle class="k" cx="154" cy="778" r="10"/><circle class="k" cx="180" cy="778" r="10"/><circle class="k" cx="206" cy="778" r="10"/><circle class="k" cx="232" cy="778" r="10"/><circle class="k" cx="258" cy="778" r="10"/></g><g id="c"/></svg>